<svg xmlns="http://www.w3.org/2000/svg" width="17.555" height="29.038" viewBox="0 0 17.555 29.038">
  <g id="catalogue" transform="translate(-28.068 -10.6)">
    <g id="catalogue-2" data-name="catalogue" transform="translate(28.318 10.847)">
      <path id="Tracé_11484" data-name="Tracé 11484" d="M98.52.276a10.182,10.182,0,0,1-1.461.567L85.815,4.44a1.262,1.262,0,0,0-.969,1.229V23.529c-.013,1.989.628.57,0,.843v3.14a1.266,1.266,0,0,0,1.264,1.264h14.526a1.266,1.266,0,0,0,1.264-1.264V26a.422.422,0,0,0-.843,0v1.51a.422.422,0,0,1-.421.421H86.111a.422.422,0,0,1-.421-.421V5.669a.424.424,0,0,1,.421-.421h14.526a.422.422,0,0,1,.421.421V28.035a.422.422,0,1,0,.843,0V5.669A1.266,1.266,0,0,0,100.636,4.4h-1.2V1.264c0-.693.08-1.176-.92-.989ZM88.692,4.4l9.9-3.168c0,.009,0,.018,0,.028V4.4h-9.9Z" transform="translate(-84.846 -0.235)" fill="#f13231" stroke="#f13231" stroke-width="0.5"/>
    </g>
    <path id="Tracé_14829" data-name="Tracé 14829" d="M29.136,16H44.729V39H29.136Z" fill="#f13231"/>
    <path id="Tracé_11514" data-name="Tracé 11514" d="M126.152,223.707l-.188-.337s1.787-1.214,1.979-2.525c0,0,.13-.422-.73-.466-.831-.043-3.5-.458-3.812-2.71a3.21,3.21,0,0,1,1.206-3.212,4.635,4.635,0,0,1,5.029-.227,2.616,2.616,0,0,1,.815.71,4.419,4.419,0,0,1,.414,4.459,6.906,6.906,0,0,1-1.614,2.424A7.85,7.85,0,0,1,126.152,223.707Z" transform="translate(-90.465 -193.071)" fill="#fff"/>
  </g>
</svg>
